<?xml version="1.0" standalone="no"?>
<!DOCTYPE svg PUBLIC "-//W3C//DTD SVG 20010904//EN" "http://www.w3.org/TR/2001/REC-SVG-20010904/DTD/svg10.dtd">
<svg xmlns="http://www.w3.org/2000/svg" version="1.0" width="1063" height="1063" viewBox="0 0 1063.000000 1063.000000" preserveAspectRatio="xMidYMid meet">
<metadata>
Created by potrace 1.16, written by Peter Selinger 2001-2019
</metadata>
<g transform="translate(0.000000,1063.000000) scale(0.100000,-0.100000)" fill="#000000" stroke="none">
<path d="M5120 8432 c-677 -321 -1248 -673 -1777 -1095 l-112 -89 16 -32 c24 -47 45 -71 103 -117 83 -66 74 -69 590 205 245 130 636 333 870 450 368 186 434 215 486 221 79 9 138 -14 294 -116 63 -41 158 -100 210 -131 126 -74 1289 -667 1362 -695 54 -21 60 -21 108 -7 41 12 59 26 100 75 45 54 48 62 38 85 -35 77 -723 569 -1183 846 -356 214 -861 488 -901 488 -10 0 -102 -40 -204 -88z"/>
<path d="M5250 7564 c-171 -46 -255 -217 -181 -363 29 -55 100 -116 161 -136 104 -35 241 -3 312 72 66 69 88 195 49 278 -55 119 -208 186 -341 149z"/>
<path d="M6385 7064 c-131 -78 -382 -205 -514 -259 -173 -71 -207 -76 -527 -82 -310 -6 -317 -5 -544 62 -152 45 -309 108 -476 193 -129 66 -138 69 -177 60 -58 -13 -111 -50 -130 -91 -48 -100 3 -168 255 -339 65 -44 138 -99 162 -122 41 -40 44 -46 40 -87 -5 -45 -54 -884 -54 -912 0 -11 -19 -18 -67 -27 -221 -37 -476 -129 -503 -179 -25 -47 0 -114 72 -200 l33 -40 155 0 c112 0 182 5 250 19 140 28 155 29 525 46 525 24 1439 18 1702 -12 149 -16 284 96 258 214 -15 72 -69 98 -345 168 -96 24 -185 47 -197 50 l-23 6 0 492 0 491 151 150 c83 83 168 171 191 197 38 45 39 49 28 82 -17 53 -66 114 -117 146 -26 17 -49 30 -52 29 -4 0 -46 -25 -96 -55z m-485 -741 c37 -212 45 -530 16 -661 -16 -79 -46 -136 -78 -153 -37 -20 -98 -12 -165 21 -62 31 -63 32 -64 73 0 23 -4 186 -8 362 -5 187 -5 324 1 330 6 8 249 89 279 94 4 1 12 -29 19 -66z m-889 7 c31 -11 86 -22 121 -26 l64 -6 19 -187 c29 -301 14 -473 -48 -539 -36 -38 -66 -49 -180 -63 -171 -21 -195 -2 -176 142 7 53 8 154 4 271 -4 103 -4 243 0 311 l7 123 67 -4 c36 -2 91 -12 122 -22z"/>
<path d="M3280 4550 c-72 -41 -80 -57 -56 -113 14 -35 14 -35 -114 -329 -71 -161 -134 -301 -139 -310 -6 -10 -28 -29 -50 -42 -31 -20 -40 -32 -43 -60 l-4 -36 144 0 144 0 -7 33 c-9 38 -20 54 -46 62 -25 8 -24 19 6 83 l24 52 160 0 161 0 31 -62 c17 -34 27 -64 23 -65 -46 -16 -59 -31 -62 -66 l-3 -37 170 0 171 0 0 28 c0 35 -8 46 -45 63 -26 12 -49 58 -200 397 -94 210 -178 395 -186 410 l-14 29 -65 -37z m78 -416 c29 -69 51 -128 49 -130 -2 -3 -54 -3 -114 -2 l-109 3 55 127 c31 70 58 128 61 128 3 -1 29 -57 58 -126z"/>
<path d="M6295 4560 c-11 -5 -156 -9 -323 -9 l-303 -1 3 -37 c2 -32 8 -40 36 -52 l32 -15 0 -343 c0 -318 -1 -344 -17 -350 -33 -11 -53 -36 -53 -65 l0 -28 355 0 355 0 0 130 0 130 -40 0 c-44 0 -58 -15 -80 -83 -21 -65 -52 -77 -207 -77 l-133 0 0 155 0 156 63 -3 c60 -3 63 -4 82 -40 15 -29 28 -40 52 -44 61 -12 63 -8 63 136 l0 130 -39 0 c-40 0 -71 -20 -71 -45 0 -22 -34 -35 -94 -35 l-56 0 0 140 0 140 113 0 c131 0 145 -6 182 -79 26 -51 39 -61 86 -61 l29 0 0 130 c0 72 -3 130 -7 129 -5 0 -17 -4 -28 -9z"/>
<path d="M4117 4544 c-33 -10 -65 -32 -102 -67 -44 -44 -55 -61 -65 -108 -33 -147 57 -258 260 -324 81 -26 145 -61 169 -91 43 -55 19 -149 -50 -192 -98 -60 -218 -24 -271 82 -32 64 -46 76 -92 76 l-41 0 0 -135 0 -135 53 0 c28 0 52 5 52 10 0 15 28 12 116 -10 92 -24 152 -20 230 15 101 45 164 135 172 246 11 158 -50 220 -333 335 -127 51 -158 113 -92 179 44 44 100 54 159 27 37 -16 46 -26 62 -70 22 -64 55 -92 107 -92 l39 0 0 121 0 120 -62 -2 c-39 -1 -80 5 -107 15 -53 20 -140 20 -204 0z"/>
<path d="M6707 4544 c-33 -10 -65 -32 -102 -67 -44 -44 -55 -61 -65 -108 -33 -147 57 -258 260 -324 81 -26 145 -61 169 -91 43 -55 19 -149 -50 -192 -98 -60 -218 -24 -271 82 -32 64 -46 76 -92 76 l-41 0 0 -135 0 -135 53 0 c28 0 52 5 52 10 0 15 37 12 120 -11 201 -54 384 66 398 262 11 158 -50 220 -333 335 -127 51 -158 113 -92 179 44 44 100 54 159 27 37 -16 46 -26 62 -70 23 -65 57 -94 105 -90 l36 3 3 118 3 118 -63 -2 c-39 -1 -80 5 -107 15 -53 20 -140 20 -204 0z"/>
<path d="M4690 4524 c0 -37 16 -61 45 -68 l25 -6 0 -345 0 -345 -27 -11 c-34 -13 -43 -26 -43 -61 l0 -28 163 0 163 0 -2 28 c-1 15 -3 31 -3 35 -1 4 -17 15 -36 23 l-35 14 0 150 0 150 185 0 185 0 0 -149 0 -149 -34 -12 c-36 -12 -46 -26 -46 -66 l0 -24 160 0 160 0 0 35 c0 29 -5 38 -27 48 -16 6 -31 16 -35 22 -4 5 -8 160 -8 343 l0 332 35 17 c31 15 35 21 35 55 l0 38 -155 0 c-168 0 -174 -2 -161 -55 4 -16 19 -30 41 -40 l36 -14 -3 -133 -3 -133 -180 0 -180 0 -3 133 -3 133 35 14 c28 12 34 21 38 50 2 20 2 38 -1 40 -2 3 -76 5 -163 5 l-158 0 0 -26z"/>
<path d="M7289 4545 c-1 -3 -1 -14 -1 -25 0 -44 3 -50 37 -64 l35 -15 0 -340 0 -341 -35 -14 c-19 -8 -36 -19 -36 -23 -1 -4 -2 -20 -3 -35 l-2 -28 163 0 163 0 0 36 c0 31 -4 37 -35 50 l-35 14 0 343 0 342 33 15 c27 12 33 21 35 53 l3 37 -160 0 c-89 0 -161 -2 -162 -5z"/>
<path d="M5210 3234 c-31 -8 -126 -13 -310 -13 l-266 -1 4 -36 c4 -29 10 -38 33 -46 l29 -10 0 -324 0 -323 -30 -16 c-25 -13 -30 -22 -30 -50 l0 -35 335 0 335 0 0 125 0 125 -40 0 c-44 0 -58 -15 -80 -83 -18 -57 -46 -67 -195 -67 l-125 0 0 145 0 145 54 0 c55 0 68 -8 91 -54 8 -16 21 -22 55 -24 l45 -3 0 126 0 125 -43 0 c-37 0 -44 -4 -55 -27 -16 -39 -24 -43 -89 -43 l-58 0 0 130 0 130 108 0 c124 0 131 -3 170 -75 25 -47 30 -50 70 -53 l42 -3 0 125 c0 69 -1 125 -2 125 -2 -1 -23 -7 -48 -15z"/>
<path d="M7400 3126 l0 -126 44 0 c49 0 60 9 78 65 16 48 45 65 116 65 l52 0 0 -325 0 -325 -35 -14 c-31 -13 -35 -19 -35 -50 l0 -36 161 0 160 0 -3 36 c-3 35 -12 46 -50 58 -17 5 -18 30 -18 331 l0 325 58 0 c66 0 83 -13 121 -87 20 -41 24 -43 66 -43 l45 0 0 126 c0 116 -1 126 -17 119 -46 -19 -118 -24 -363 -24 -245 0 -317 5 -362 24 -17 7 -18 -3 -18 -119z"/>
<path d="M6478 3223 c-168 -56 -222 -249 -105 -371 38 -40 97 -72 212 -113 95 -34 128 -57 151 -101 22 -43 11 -91 -31 -133 -91 -91 -227 -60 -290 65 -26 52 -39 60 -91 60 l-34 0 0 -130 0 -130 45 0 c25 0 54 5 65 12 15 10 32 9 84 -5 163 -43 301 7 372 135 25 46 29 63 29 128 -1 141 -60 200 -292 290 -89 34 -143 75 -143 110 0 64 76 118 149 105 50 -9 66 -23 94 -87 28 -62 48 -78 101 -78 l36 0 0 116 0 115 -62 -2 c-38 -1 -79 5 -103 14 -51 20 -127 20 -187 0z"/>
<path d="M1460 3190 c0 -24 7 -35 34 -51 l35 -20 3 -282 c3 -269 4 -284 25 -323 55 -103 151 -149 313 -148 129 0 201 24 266 89 68 68 74 103 74 405 l0 256 35 17 c30 14 35 21 35 52 l0 35 -130 0 -130 0 0 -36 c0 -30 4 -37 34 -49 18 -8 36 -22 40 -30 10 -28 7 -451 -5 -504 -25 -117 -181 -178 -299 -118 -82 41 -85 52 -88 363 l-3 271 35 21 c29 17 36 27 36 52 l0 30 -155 0 -155 0 0 -30z"/>
<path d="M2382 3188 c2 -26 10 -36 35 -48 l33 -15 0 -312 0 -313 -40 -25 c-34 -22 -40 -30 -40 -60 l0 -35 140 0 140 0 0 35 c0 30 -6 38 -40 60 l-40 25 0 260 c0 143 2 260 4 260 3 0 107 -144 232 -320 l227 -320 49 0 48 0 0 358 c0 383 -1 372 53 405 20 13 27 26 27 47 l0 30 -135 0 -135 0 0 -30 c0 -29 3 -33 48 -68 22 -17 23 -19 20 -210 l-3 -193 -178 251 -179 250 -135 0 -134 0 3 -32z"/>
<path d="M3302 3188 c2 -26 10 -36 35 -48 l33 -15 0 -323 0 -322 -27 -11 c-34 -13 -43 -26 -43 -61 l0 -28 155 0 155 0 0 36 c0 31 -4 37 -35 50 l-35 14 0 321 0 320 35 15 c31 12 35 19 35 49 l0 35 -156 0 -155 0 3 -32z"/>
<path d="M3700 3199 c0 -31 17 -56 43 -63 27 -6 15 19 225 -496 l108 -265 45 -3 45 -3 79 188 c231 554 234 560 271 582 27 16 34 27 34 51 l0 30 -128 0 -128 0 4 -36 c3 -25 11 -39 28 -46 16 -7 22 -17 19 -27 -25 -77 -186 -466 -192 -464 -5 1 -203 466 -203 478 0 2 14 8 30 15 25 10 30 18 30 46 l0 34 -155 0 c-150 0 -155 -1 -155 -21z"/>
<path d="M5400 3199 c0 -32 17 -56 45 -63 l25 -6 0 -326 c0 -300 -1 -325 -17 -331 -33 -11 -53 -36 -53 -65 l0 -28 158 0 159 0 -5 33 c-6 40 -19 57 -43 57 -18 0 -19 10 -19 150 l0 150 29 0 c41 0 64 -27 186 -217 l110 -173 113 0 113 0 -3 38 c-3 33 -8 39 -45 56 -35 17 -56 42 -140 165 -54 80 -99 149 -101 152 -1 3 16 11 38 18 50 15 118 74 137 118 34 81 3 193 -65 238 -74 49 -115 55 -379 55 -239 0 -243 0 -243 -21z m461 -92 c65 -44 76 -142 20 -197 -30 -30 -101 -50 -181 -50 l-50 0 0 135 0 135 89 0 c75 0 93 -3 122 -23z"/>
<path d="M7000 3185 c0 -30 4 -37 35 -49 l35 -15 0 -320 0 -321 -35 -14 c-31 -13 -35 -19 -35 -50 l0 -36 155 0 155 0 0 28 c0 35 -9 48 -43 61 l-27 11 0 322 0 323 33 15 c25 12 33 22 35 48 l3 32 -155 0 -156 0 0 -35z"/>
<path d="M8242 3188 c2 -26 10 -36 36 -47 25 -12 59 -56 162 -213 l130 -199 0 -127 0 -127 -33 -15 c-25 -12 -33 -22 -35 -47 l-3 -33 155 0 156 0 0 28 c0 35 -9 48 -43 61 l-27 11 0 125 0 125 130 196 c101 151 138 198 164 211 27 12 35 23 38 49 l4 34 -136 0 -136 0 2 -31 c2 -31 17 -49 42 -49 6 0 12 -6 12 -13 0 -10 -149 -258 -165 -275 -1 -1 -43 60 -93 137 l-91 140 27 13 c20 10 28 22 30 46 l3 32 -166 0 -166 0 3 -32z"/>
</g>
</svg>